<?xml version="1.0" encoding="utf-8"?>
<!-- Generator: Adobe Illustrator 25.2.0, SVG Export Plug-In . SVG Version: 6.00 Build 0)  -->
<svg version="1.1" xmlns="http://www.w3.org/2000/svg" xmlns:xlink="http://www.w3.org/1999/xlink" x="0px" y="0px"
	 viewBox="0 0 841.89 595.28" style="enable-background:new 0 0 841.89 595.28;" xml:space="preserve">
<style type="text/css">
	.st0{fill:#17181A;}
	.st1{fill:#795FF6;}
	.st2{fill:#00C3D9;}
	.st3{fill:#FAFAFA;}
	.st4{fill:url(#SVGID_1_);}
	.st5{display:none;}
	.st6{display:inline;fill:#795FF6;}
	.st7{display:inline;fill:#FAFAFA;}
	.st8{display:inline;fill:#00C3D9;}
	.st9{font-family:'Gilroy-Medium';}
	.st10{font-size:41.1022px;}
	.st11{display:inline;fill:#FFAC00;}
	.st12{display:inline;fill:#17181A;}
	.st13{display:inline;fill:#BF7B9C;}
	.st14{display:inline;fill:#5E53AD;}
	.st15{display:inline;fill:#5CDABE;}
	.st16{display:inline;fill:#F05B45;}
	.st17{display:inline;fill:#33666C;}
	.st18{display:inline;fill:#B4CAFF;}
	.st19{display:inline;}
	.st20{fill:#FFFFFF;}
</style>
<g id="Слой_2">
	<rect x="20.55" y="625.95" class="st0" width="133.18" height="133.18"/>
	<rect x="377.47" y="625.62" class="st1" width="133.18" height="133.18"/>
	<rect x="557.25" y="625.62" class="st2" width="133.18" height="133.18"/>
	<rect x="200.34" y="625.95" class="st3" width="133.18" height="133.18"/>
	<linearGradient id="SVGID_1_" gradientUnits="userSpaceOnUse" x1="420.9449" y1="0" x2="420.9449" y2="595.2756">
		<stop  offset="0" style="stop-color:#17181A"/>
		<stop  offset="0.1295" style="stop-color:#1E102B"/>
		<stop  offset="0.3482" style="stop-color:#2D0051"/>
		<stop  offset="0.5002" style="stop-color:#2B0251"/>
		<stop  offset="0.5734" style="stop-color:#23084F"/>
		<stop  offset="0.6296" style="stop-color:#16124C"/>
		<stop  offset="0.6727" style="stop-color:#061F49"/>
		<stop  offset="0.6857" style="stop-color:#091E42"/>
		<stop  offset="0.7281" style="stop-color:#0F1B30"/>
		<stop  offset="0.7791" style="stop-color:#141923"/>
		<stop  offset="0.847" style="stop-color:#16181C"/>
		<stop  offset="1" style="stop-color:#17181A"/>
	</linearGradient>
	<rect class="st4" width="841.89" height="595.28"/>
	<text transform="matrix(1 0 0 1 58.2548 697.2886)" class="st3 st9" style="font-size:20.5708px;">17181a</text>
	<text transform="matrix(1 0 0 1 241.301 697.2891)" class="st9" style="font-size:20.5708px;">fafafa</text>
	<text transform="matrix(1 0 0 1 417.9449 697.2891)" class="st9" style="font-size:20.5708px;">795ff6</text>
	<text transform="matrix(1 0 0 1 589.0184 695.5379)" class="st9" style="font-size:20.5708px;">00c3d9</text>
	<text transform="matrix(1 0 0 1 709.5004 679.1289)"><tspan x="0" y="0" class="st9" style="font-size:18.4105px;">Текст: </tspan><tspan x="0" y="22.09" class="st9" style="font-size:18.4105px;">Gilroy Medium</tspan></text>
</g>
<g id="Слой_3">
	<g>
		<g>
			<path class="st3" d="M219.84,346.85c3.22,0,3.22-5,0-5C216.62,341.85,216.62,346.85,219.84,346.85L219.84,346.85z"/>
		</g>
	</g>
	<g>
		<g>
			<path class="st3" d="M241.3,329.91c3.22,0,3.22-5,0-5C238.08,324.91,238.08,329.91,241.3,329.91L241.3,329.91z"/>
		</g>
	</g>
	<g>
		<g>
			<path class="st3" d="M298.9,352.5c3.22,0,3.22-5,0-5C295.68,347.5,295.68,352.5,298.9,352.5L298.9,352.5z"/>
		</g>
	</g>
	<g>
		<g>
			<path class="st3" d="M310.19,325.39c3.22,0,3.22-5,0-5C306.98,320.39,306.97,325.39,310.19,325.39L310.19,325.39z"/>
		</g>
	</g>
	<g>
		<g>
			<path class="st3" d="M381.35,326.52c3.22,0,3.22-5,0-5C378.13,321.52,378.13,326.52,381.35,326.52L381.35,326.52z"/>
		</g>
	</g>
	<g>
		<g>
			<path class="st3" d="M496.55,316.6c2.62,0,5.12-2.3,5-5c-0.12-2.71-2.2-5-5-5c-2.62,0-5.12,2.3-5,5
				C491.67,314.3,493.74,316.6,496.55,316.6L496.55,316.6z"/>
		</g>
	</g>
	<g>
		<g>
			<path class="st3" d="M445.72,367.42c2.62,0,5.12-2.3,5-5c-0.12-2.71-2.2-5-5-5c-2.62,0-5.12,2.3-5,5
				C440.85,365.13,442.92,367.42,445.72,367.42L445.72,367.42z"/>
		</g>
	</g>
	<g>
		<g>
			<path class="st3" d="M328.27,296.27c2.62,0,5.12-2.3,5-5c-0.12-2.71-2.2-5-5-5c-2.62,0-5.12,2.3-5,5
				C323.39,293.97,325.46,296.27,328.27,296.27L328.27,296.27z"/>
		</g>
	</g>
	<g>
		<g>
			<path class="st3" d="M263.89,345.96c2.62,0,5.12-2.3,5-5c-0.12-2.71-2.2-5-5-5c-2.62,0-5.12,2.3-5,5
				C259.01,343.67,261.09,345.96,263.89,345.96L263.89,345.96z"/>
		</g>
	</g>
	<g>
		<g>
			<path class="st3" d="M27.44,419.7c3.22,0,3.22-5,0-5C24.23,414.7,24.22,419.7,27.44,419.7L27.44,419.7z"/>
		</g>
	</g>
	<g>
		<g>
			<path class="st3" d="M46.64,250.28c3.22,0,3.22-5,0-5C43.43,245.28,43.42,250.28,46.64,250.28L46.64,250.28z"/>
		</g>
	</g>
	<g>
		<g>
			<path class="st3" d="M611.35,344.02c3.22,0,3.22-5,0-5C608.13,339.02,608.13,344.02,611.35,344.02L611.35,344.02z"/>
		</g>
	</g>
	<g>
		<g>
			<path class="st3" d="M706.7,281.91c3.22,0,3.22-5,0-5C703.48,276.91,703.48,281.91,706.7,281.91L706.7,281.91z"/>
		</g>
	</g>
	<g>
		<g>
			<path class="st3" d="M813.99,103.46c3.22,0,3.22-5,0-5C810.78,98.46,810.77,103.46,813.99,103.46L813.99,103.46z"/>
		</g>
	</g>
	<g>
		<g>
			<path class="st3" d="M821.42,58.28c3.22,0,3.22-5,0-5C818.2,53.28,818.2,58.28,821.42,58.28L821.42,58.28z"/>
		</g>
	</g>
	<g>
		<g>
			<path class="st3" d="M805.61,24.4c3.22,0,3.22-5,0-5C802.39,19.4,802.38,24.4,805.61,24.4L805.61,24.4z"/>
		</g>
	</g>
	<g>
		<g>
			<path class="st3" d="M838.36,7.46c3.22,0,3.22-5,0-5C835.14,2.46,835.14,7.46,838.36,7.46L838.36,7.46z"/>
		</g>
	</g>
	<g>
		<g>
			<path class="st3" d="M619.25,274c3.22,0,3.22-5,0-5C616.04,269,616.03,274,619.25,274L619.25,274z"/>
		</g>
	</g>
	<g>
		<g>
			<path class="st3" d="M592.15,232.21c3.22,0,3.22-5,0-5C588.93,227.21,588.93,232.21,592.15,232.21L592.15,232.21z"/>
		</g>
	</g>
	<g>
		<g>
			<path class="st3" d="M588.76,135.08c3.22,0,3.22-5,0-5C585.54,130.08,585.54,135.08,588.76,135.08L588.76,135.08z"/>
		</g>
	</g>
	<g>
		<g>
			<path class="st3" d="M638.94,141.86c3.22,0,3.22-5,0-5C635.72,136.86,635.71,141.86,638.94,141.86L638.94,141.86z"/>
		</g>
	</g>
	<g>
		<g>
			<path class="st3" d="M766.08,50.38c3.22,0,3.22-5,0-5C762.86,45.38,762.85,50.38,766.08,50.38L766.08,50.38z"/>
		</g>
	</g>
	<g>
		<g>
			<path class="st3" d="M698.79,128.31c3.22,0,3.22-5,0-5C695.58,123.31,695.57,128.31,698.79,128.31L698.79,128.31z"/>
		</g>
	</g>
	<g>
		<g>
			<path class="st3" d="M797.05,225.44c3.22,0,3.22-5,0-5C793.84,220.44,793.83,225.44,797.05,225.44L797.05,225.44z"/>
		</g>
	</g>
	<g>
		<g>
			<path class="st3" d="M604.57,35.7c3.22,0,3.22-5,0-5C601.35,30.7,601.35,35.7,604.57,35.7L604.57,35.7z"/>
		</g>
	</g>
	<g>
		<g>
			<path class="st3" d="M572.95,266.1c3.22,0,3.22-5,0-5C569.73,261.1,569.73,266.1,572.95,266.1L572.95,266.1z"/>
		</g>
	</g>
	<g>
		<g>
			<path class="st3" d="M47.77,531.51c3.22,0,3.22-5,0-5C44.56,526.51,44.55,531.51,47.77,531.51L47.77,531.51z"/>
		</g>
	</g>
	<g>
		<g>
			<path class="st3" d="M96.34,560.87c3.22,0,3.22-5,0-5C93.12,555.87,93.11,560.87,96.34,560.87L96.34,560.87z"/>
		</g>
	</g>
	<g>
		<g>
			<path class="st3" d="M15.02,564.26c3.22,0,3.22-5,0-5C11.8,559.26,11.8,564.26,15.02,564.26L15.02,564.26z"/>
		</g>
	</g>
	<g>
		<g>
			<path class="st3" d="M248.81,564.26c3.22,0,3.22-5,0-5C245.59,559.26,245.58,564.26,248.81,564.26L248.81,564.26z"/>
		</g>
	</g>
	<g>
		<g>
			<path class="st3" d="M305.28,576.68c3.22,0,3.22-5,0-5C302.06,571.68,302.06,576.68,305.28,576.68L305.28,576.68z"/>
		</g>
	</g>
	<g>
		<g>
			<path class="st3" d="M185.56,583.46c3.22,0,3.22-5,0-5C182.34,578.46,182.34,583.46,185.56,583.46L185.56,583.46z"/>
		</g>
	</g>
	<g>
		<g>
			<path class="st3" d="M388.85,562c3.22,0,3.22-5,0-5C385.64,557,385.63,562,388.85,562L388.85,562z"/>
		</g>
	</g>
	<g>
		<g>
			<path class="st3" d="M73.75,357.58c3.22,0,3.22-5,0-5C70.53,352.58,70.53,357.58,73.75,357.58L73.75,357.58z"/>
		</g>
	</g>
	<g>
		<g>
			<path class="st3" d="M37.61,346.28c3.22,0,3.22-5,0-5C34.39,341.28,34.39,346.28,37.61,346.28L37.61,346.28z"/>
		</g>
	</g>
	<g>
		<g>
			<path class="st3" d="M57.94,289.81c3.22,0,3.22-5,0-5C54.72,284.81,54.71,289.81,57.94,289.81L57.94,289.81z"/>
		</g>
	</g>
	<g>
		<g>
			<path class="st3" d="M36.48,196.07c3.22,0,3.22-5,0-5C33.26,191.07,33.26,196.07,36.48,196.07L36.48,196.07z"/>
		</g>
	</g>
	<g>
		<g>
			<path class="st3" d="M16.15,293.2c3.22,0,3.22-5,0-5C12.93,288.2,12.93,293.2,16.15,293.2L16.15,293.2z"/>
		</g>
	</g>
	<g>
		<g>
			<path class="st3" d="M615.87,422.96c1.61,0,1.61-2.5,0-2.5C614.26,420.46,614.25,422.96,615.87,422.96L615.87,422.96z"/>
		</g>
	</g>
	<g>
		<g>
			<path class="st3" d="M661.52,306.63c1.61,0,1.61-2.5,0-2.5C659.92,304.13,659.91,306.63,661.52,306.63L661.52,306.63z"/>
		</g>
	</g>
	<g>
		<g>
			<path class="st3" d="M598.92,341.65c1.61,0,1.61-2.5,0-2.5C597.32,339.15,597.31,341.65,598.92,341.65L598.92,341.65z"/>
		</g>
	</g>
	<g>
		<g>
			<path class="st3" d="M652.49,247.9c1.61,0,1.61-2.5,0-2.5C650.88,245.4,650.88,247.9,652.49,247.9L652.49,247.9z"/>
		</g>
	</g>
	<g>
		<g>
			<path class="st3" d="M681.85,236.61c1.61,0,1.61-2.5,0-2.5C680.24,234.11,680.24,236.61,681.85,236.61L681.85,236.61z"/>
		</g>
	</g>
	<g>
		<g>
			<path class="st3" d="M771.08,229.83c1.61,0,1.61-2.5,0-2.5C769.47,227.33,769.47,229.83,771.08,229.83L771.08,229.83z"/>
		</g>
	</g>
	<g>
		<g>
			<path class="st3" d="M771.08,287.43c1.61,0,1.61-2.5,0-2.5C769.47,284.93,769.47,287.43,771.08,287.43L771.08,287.43z"/>
		</g>
	</g>
	<g>
		<g>
			<path class="st3" d="M785.76,400.37c1.61,0,1.61-2.5,0-2.5C784.15,397.87,784.15,400.37,785.76,400.37L785.76,400.37z"/>
		</g>
	</g>
	<g>
		<g>
			<path class="st3" d="M719.12,402.63c1.61,0,1.61-2.5,0-2.5C717.52,400.13,717.51,402.63,719.12,402.63L719.12,402.63z"/>
		</g>
	</g>
	<g>
		<g>
			<path class="st3" d="M42.13,473.79c1.61,0,1.61-2.5,0-2.5C40.52,471.29,40.51,473.79,42.13,473.79L42.13,473.79z"/>
		</g>
	</g>
	<g>
		<g>
			<path class="st3" d="M18.41,483.95c1.61,0,1.61-2.5,0-2.5C16.8,481.45,16.8,483.95,18.41,483.95L18.41,483.95z"/>
		</g>
	</g>
	<g>
		<g>
			<path class="st3" d="M27.44,368.75c1.61,0,1.61-2.5,0-2.5C25.83,366.25,25.83,368.75,27.44,368.75L27.44,368.75z"/>
		</g>
	</g>
	<g>
		<g>
			<path class="st3" d="M43.25,157.55c1.61,0,1.61-2.5,0-2.5C41.65,155.05,41.64,157.55,43.25,157.55L43.25,157.55z"/>
		</g>
	</g>
	<g>
		<g>
			<path class="st3" d="M515.35,35.58c1.61,0,1.61-2.5,0-2.5C513.74,33.08,513.74,35.58,515.35,35.58L515.35,35.58z"/>
		</g>
	</g>
	<g>
		<g>
			<path class="st3" d="M399.02,35.58c1.61,0,1.61-2.5,0-2.5C397.41,33.08,397.41,35.58,399.02,35.58L399.02,35.58z"/>
		</g>
	</g>
	<g>
		<g>
			<path class="st3" d="M409.18,44.61c1.61,0,1.61-2.5,0-2.5C407.57,42.11,407.57,44.61,409.18,44.61L409.18,44.61z"/>
		</g>
	</g>
	<g>
		<g>
			<path class="st3" d="M435.16,35.58c1.61,0,1.61-2.5,0-2.5C433.55,33.08,433.55,35.58,435.16,35.58L435.16,35.58z"/>
		</g>
	</g>
	<g>
		<g>
			<path class="st3" d="M293.98,45.74c1.61,0,1.61-2.5,0-2.5C292.38,43.24,292.37,45.74,293.98,45.74L293.98,45.74z"/>
		</g>
	</g>
	<g>
		<g>
			<path class="st3" d="M354.97,41.22c1.61,0,1.61-2.5,0-2.5C353.36,38.72,353.36,41.22,354.97,41.22L354.97,41.22z"/>
		</g>
	</g>
	<g>
		<g>
			<path class="st3" d="M682.5,23.15c1.61,0,1.61-2.5,0-2.5C680.89,20.65,680.89,23.15,682.5,23.15L682.5,23.15z"/>
		</g>
	</g>
	<g>
		<g>
			<path class="st3" d="M676.85,37.83c1.61,0,1.61-2.5,0-2.5C675.24,35.33,675.24,37.83,676.85,37.83L676.85,37.83z"/>
		</g>
	</g>
	<g>
		<g>
			<path class="st3" d="M707.35,34.45c1.61,0,1.61-2.5,0-2.5C705.74,31.95,705.74,34.45,707.35,34.45L707.35,34.45z"/>
		</g>
	</g>
	<g>
		<g>
			<path class="st3" d="M731.07,36.7c1.61,0,1.61-2.5,0-2.5C729.46,34.2,729.45,36.7,731.07,36.7L731.07,36.7z"/>
		</g>
	</g>
	<g>
		<g>
			<path class="st3" d="M762.69,15.25c1.61,0,1.61-2.5,0-2.5C761.08,12.75,761.08,15.25,762.69,15.25L762.69,15.25z"/>
		</g>
	</g>
	<g>
		<g>
			<path class="st3" d="M766.08,41.22c1.61,0,1.61-2.5,0-2.5C764.47,38.72,764.47,41.22,766.08,41.22L766.08,41.22z"/>
		</g>
	</g>
	<g>
		<g>
			<path class="st3" d="M797.7,35.58c1.61,0,1.61-2.5,0-2.5C796.09,33.08,796.09,35.58,797.7,35.58L797.7,35.58z"/>
		</g>
	</g>
	<g>
		<g>
			<path class="st3" d="M795.44,48c1.61,0,1.61-2.5,0-2.5C793.83,45.5,793.83,48,795.44,48L795.44,48z"/>
		</g>
	</g>
	<g>
		<g>
			<path class="st3" d="M797.7,57.03c1.61,0,1.61-2.5,0-2.5C796.09,54.53,796.09,57.03,797.7,57.03L797.7,57.03z"/>
		</g>
	</g>
	<g>
		<g>
			<path class="st3" d="M742.84,129.32c1.61,0,1.61-2.5,0-2.5C741.23,126.82,741.23,129.32,742.84,129.32L742.84,129.32z"/>
		</g>
	</g>
	<g>
		<g>
			<path class="st3" d="M714.61,134.96c1.61,0,1.61-2.5,0-2.5C713,132.46,713,134.96,714.61,134.96L714.61,134.96z"/>
		</g>
	</g>
	<g>
		<g>
			<path class="st3" d="M667.17,138.35c1.61,0,1.61-2.5,0-2.5C665.56,135.85,665.56,138.35,667.17,138.35L667.17,138.35z"/>
		</g>
	</g>
	<g>
		<g>
			<path class="st3" d="M659.27,131.58c1.61,0,1.61-2.5,0-2.5C657.66,129.08,657.65,131.58,659.27,131.58L659.27,131.58z"/>
		</g>
	</g>
	<g>
		<g>
			<path class="st3" d="M646.84,132.7c1.61,0,1.61-2.5,0-2.5C645.23,130.2,645.23,132.7,646.84,132.7L646.84,132.7z"/>
		</g>
	</g>
	<g>
		<g>
			<path class="st3" d="M673.95,132.7c1.61,0,1.61-2.5,0-2.5C672.34,130.2,672.34,132.7,673.95,132.7L673.95,132.7z"/>
		</g>
	</g>
	<g>
		<g>
			<path class="st3" d="M778.98,130.45c1.61,0,1.61-2.5,0-2.5C777.37,127.95,777.37,130.45,778.98,130.45L778.98,130.45z"/>
		</g>
	</g>
	<g>
		<g>
			<path class="st3" d="M803.31,126.54c1.61,0,1.61-2.5,0-2.5C801.7,124.04,801.7,126.54,803.31,126.54L803.31,126.54z"/>
		</g>
	</g>
	<g>
		<g>
			<path class="st3" d="M793.67,93.18c1.61,0,1.61-2.5,0-2.5C792.06,90.68,792.05,93.18,793.67,93.18L793.67,93.18z"/>
		</g>
	</g>
	<g>
		<g>
			<path class="st3" d="M812.87,141.74c1.61,0,1.61-2.5,0-2.5C811.26,139.24,811.25,141.74,812.87,141.74L812.87,141.74z"/>
		</g>
	</g>
	<g>
		<g>
			<path class="st3" d="M821.9,87.53c1.61,0,1.61-2.5,0-2.5C820.29,85.03,820.29,87.53,821.9,87.53L821.9,87.53z"/>
		</g>
	</g>
	<g>
		<g>
			<path class="st3" d="M801.57,158.68c1.61,0,1.61-2.5,0-2.5C799.96,156.18,799.96,158.68,801.57,158.68L801.57,158.68z"/>
		</g>
	</g>
	<g>
		<g>
			<path class="st3" d="M788.02,200.47c1.61,0,1.61-2.5,0-2.5C786.41,197.97,786.41,200.47,788.02,200.47L788.02,200.47z"/>
		</g>
	</g>
	<g>
		<g>
			<path class="st3" d="M740.58,229.83c1.61,0,1.61-2.5,0-2.5C738.97,227.33,738.97,229.83,740.58,229.83L740.58,229.83z"/>
		</g>
	</g>
	<g>
		<g>
			<path class="st3" d="M689.76,221.93c1.61,0,1.61-2.5,0-2.5C688.15,219.43,688.15,221.93,689.76,221.93L689.76,221.93z"/>
		</g>
	</g>
	<g>
		<g>
			<path class="st3" d="M628.77,214.02c1.61,0,1.61-2.5,0-2.5C627.16,211.52,627.16,214.02,628.77,214.02L628.77,214.02z"/>
		</g>
	</g>
	<g>
		<g>
			<path class="st3" d="M629.9,223.06c1.61,0,1.61-2.5,0-2.5C628.29,220.56,628.29,223.06,629.9,223.06L629.9,223.06z"/>
		</g>
	</g>
	<g>
		<g>
			<path class="st3" d="M601.18,225.32c1.61,0,1.61-2.5,0-2.5C599.57,222.82,599.57,225.32,601.18,225.32L601.18,225.32z"/>
		</g>
	</g>
	<g>
		<g>
			<path class="st3" d="M654.75,237.74c1.61,0,1.61-2.5,0-2.5C653.14,235.24,653.14,237.74,654.75,237.74L654.75,237.74z"/>
		</g>
	</g>
	<g>
		<g>
			<path class="st3" d="M629.9,237.74c1.61,0,1.61-2.5,0-2.5C628.29,235.24,628.29,237.74,629.9,237.74L629.9,237.74z"/>
		</g>
	</g>
	<g>
		<g>
			<path class="st3" d="M628.77,247.9c1.61,0,1.61-2.5,0-2.5C627.16,245.4,627.16,247.9,628.77,247.9L628.77,247.9z"/>
		</g>
	</g>
	<g>
		<g>
			<path class="st3" d="M591.02,225.32c1.61,0,1.61-2.5,0-2.5C589.41,222.82,589.41,225.32,591.02,225.32L591.02,225.32z"/>
		</g>
	</g>
	<g>
		<g>
			<path class="st3" d="M579.72,214.02c1.61,0,1.61-2.5,0-2.5C578.12,211.52,578.11,214.02,579.72,214.02L579.72,214.02z"/>
		</g>
	</g>
	<g>
		<g>
			<path class="st3" d="M591.02,258.07c1.61,0,1.61-2.5,0-2.5C589.41,255.57,589.41,258.07,591.02,258.07L591.02,258.07z"/>
		</g>
	</g>
	<g>
		<g>
			<path class="st3" d="M711.22,245.65c1.61,0,1.61-2.5,0-2.5C709.61,243.15,709.61,245.65,711.22,245.65L711.22,245.65z"/>
		</g>
	</g>
	<g>
		<g>
			<path class="st3" d="M661.52,272.75c1.61,0,1.61-2.5,0-2.5C659.92,270.25,659.91,272.75,661.52,272.75L661.52,272.75z"/>
		</g>
	</g>
	<g>
		<g>
			<path class="st3" d="M593.28,302.12c1.61,0,1.61-2.5,0-2.5C591.67,299.62,591.67,302.12,593.28,302.12L593.28,302.12z"/>
		</g>
	</g>
	<g>
		<g>
			<path class="st3" d="M593.28,272.75c1.61,0,1.61-2.5,0-2.5C591.67,270.25,591.67,272.75,593.28,272.75L593.28,272.75z"/>
		</g>
	</g>
	<g>
		<g>
			<path class="st3" d="M579.72,299.86c1.61,0,1.61-2.5,0-2.5C578.12,297.36,578.11,299.86,579.72,299.86L579.72,299.86z"/>
		</g>
	</g>
	<g>
		<g>
			<path class="st3" d="M576.34,319.06c1.61,0,1.61-2.5,0-2.5C574.73,316.56,574.72,319.06,576.34,319.06L576.34,319.06z"/>
		</g>
	</g>
	<g>
		<g>
			<path class="st3" d="M580.85,333.74c1.61,0,1.61-2.5,0-2.5C579.25,331.24,579.24,333.74,580.85,333.74L580.85,333.74z"/>
		</g>
	</g>
	<g>
		<g>
			<path class="st3" d="M47.77,315.67c1.61,0,1.61-2.5,0-2.5C46.16,313.17,46.16,315.67,47.77,315.67L47.77,315.67z"/>
		</g>
	</g>
	<g>
		<g>
			<path class="st3" d="M47.77,315.67c1.61,0,1.61-2.5,0-2.5C46.16,313.17,46.16,315.67,47.77,315.67L47.77,315.67z"/>
		</g>
	</g>
	<g>
		<g>
			<path class="st3" d="M44.38,288.56c1.61,0,1.61-2.5,0-2.5C42.78,286.06,42.77,288.56,44.38,288.56L44.38,288.56z"/>
		</g>
	</g>
	<g>
		<g>
			<path class="st3" d="M24.05,315.67c1.61,0,1.61-2.5,0-2.5C22.45,313.17,22.44,315.67,24.05,315.67L24.05,315.67z"/>
		</g>
	</g>
	<g>
		<g>
			<path class="st3" d="M33.09,325.83c1.61,0,1.61-2.5,0-2.5C31.48,323.33,31.48,325.83,33.09,325.83L33.09,325.83z"/>
		</g>
	</g>
	<g>
		<g>
			<path class="st3" d="M27.44,345.03c1.61,0,1.61-2.5,0-2.5C25.83,342.53,25.83,345.03,27.44,345.03L27.44,345.03z"/>
		</g>
	</g>
	<g>
		<g>
			<path class="st3" d="M54.55,342.77c1.61,0,1.61-2.5,0-2.5C52.94,340.27,52.94,342.77,54.55,342.77L54.55,342.77z"/>
		</g>
	</g>
	<g>
		<g>
			<path class="st3" d="M54.55,434.26c1.61,0,1.61-2.5,0-2.5C52.94,431.76,52.94,434.26,54.55,434.26L54.55,434.26z"/>
		</g>
	</g>
	<g>
		<g>
			<path class="st3" d="M17.28,447.81c1.61,0,1.61-2.5,0-2.5C15.67,445.31,15.67,447.81,17.28,447.81L17.28,447.81z"/>
		</g>
	</g>
	<g>
		<g>
			<path class="st3" d="M7.11,463.62c1.61,0,1.61-2.5,0-2.5C5.51,461.12,5.5,463.62,7.11,463.62L7.11,463.62z"/>
		</g>
	</g>
	<g>
		<g>
			<path class="st3" d="M15.02,406.02c1.61,0,1.61-2.5,0-2.5C13.41,403.52,13.41,406.02,15.02,406.02L15.02,406.02z"/>
		</g>
	</g>
	<g>
		<g>
			<path class="st3" d="M16.15,393.6c1.61,0,1.61-2.5,0-2.5C14.54,391.1,14.54,393.6,16.15,393.6L16.15,393.6z"/>
		</g>
	</g>
	<g>
		<g>
			<path class="st3" d="M3.73,372.14c1.61,0,1.61-2.5,0-2.5C2.12,369.64,2.11,372.14,3.73,372.14L3.73,372.14z"/>
		</g>
	</g>
	<g>
		<g>
			<path class="st3" d="M56.81,385.69c1.61,0,1.61-2.5,0-2.5C55.2,383.19,55.2,385.69,56.81,385.69L56.81,385.69z"/>
		</g>
	</g>
	<g>
		<g>
			<path class="st3" d="M62.45,566.4c1.61,0,1.61-2.5,0-2.5C60.85,563.9,60.84,566.4,62.45,566.4L62.45,566.4z"/>
		</g>
	</g>
	<g>
		<g>
			<path class="st3" d="M108.76,561.88c1.61,0,1.61-2.5,0-2.5C107.15,559.38,107.15,561.88,108.76,561.88L108.76,561.88z"/>
		</g>
	</g>
	<g>
		<g>
			<path class="st3" d="M22.93,524.61c1.61,0,1.61-2.5,0-2.5C21.32,522.11,21.31,524.61,22.93,524.61L22.93,524.61z"/>
		</g>
	</g>
	<g>
		<g>
			<path class="st3" d="M436.29,577.69c1.61,0,1.61-2.5,0-2.5C434.68,575.19,434.68,577.69,436.29,577.69L436.29,577.69z"/>
		</g>
	</g>
	<g>
		<g>
			<path class="st3" d="M751.39,574.3c1.61,0,1.61-2.5,0-2.5C749.79,571.8,749.78,574.3,751.39,574.3L751.39,574.3z"/>
		</g>
	</g>
	<g>
		<g>
			<path class="st3" d="M594.41,579.95c1.61,0,1.61-2.5,0-2.5C592.8,577.45,592.8,579.95,594.41,579.95L594.41,579.95z"/>
		</g>
	</g>
	<g>
		<g>
			<path class="st3" d="M811.25,529.13c1.61,0,1.61-2.5,0-2.5C809.64,526.63,809.64,529.13,811.25,529.13L811.25,529.13z"/>
		</g>
	</g>
	<g>
		<g>
			<path class="st3" d="M699.44,593.5c1.61,0,1.61-2.5,0-2.5C697.83,591,697.83,593.5,699.44,593.5L699.44,593.5z"/>
		</g>
	</g>
	<g>
		<g>
			<path class="st3" d="M760.91,473.79c1.61,0,1.61-2.5,0-2.5C759.3,471.29,759.3,473.79,760.91,473.79L760.91,473.79z"/>
		</g>
	</g>
	<g>
		<g>
			<path class="st3" d="M819.64,348.42c1.61,0,1.61-2.5,0-2.5C818.03,345.92,818.03,348.42,819.64,348.42L819.64,348.42z"/>
		</g>
	</g>
	<g>
		<g>
			<path class="st3" d="M755.27,374.4c1.61,0,1.61-2.5,0-2.5C753.66,371.9,753.65,374.4,755.27,374.4L755.27,374.4z"/>
		</g>
	</g>
	<g>
		<g>
			<path class="st3" d="M731.55,323.57c1.61,0,1.61-2.5,0-2.5C729.94,321.07,729.94,323.57,731.55,323.57L731.55,323.57z"/>
		</g>
	</g>
	<g>
		<g>
			<path class="st3" d="M684.11,390.21c1.61,0,1.61-2.5,0-2.5C682.5,387.71,682.5,390.21,684.11,390.21L684.11,390.21z"/>
		</g>
	</g>
	<g>
		<g>
			<path class="st3" d="M682.98,432c1.61,0,1.61-2.5,0-2.5C681.37,429.5,681.37,432,682.98,432L682.98,432z"/>
		</g>
	</g>
	<g>
		<g>
			<path class="st3" d="M634.42,416.19c1.61,0,1.61-2.5,0-2.5C632.81,413.69,632.81,416.19,634.42,416.19L634.42,416.19z"/>
		</g>
	</g>
	<g>
		<g>
			<path class="st3" d="M140.38,28.8c1.61,0,1.61-2.5,0-2.5C138.78,26.3,138.77,28.8,140.38,28.8L140.38,28.8z"/>
		</g>
	</g>
	<g>
		<g>
			<path class="st3" d="M28.57,6.21c1.61,0,1.61-2.5,0-2.5C26.96,3.71,26.96,6.21,28.57,6.21L28.57,6.21z"/>
		</g>
	</g>
	<g>
		<g>
			<path class="st3" d="M13.89,52.52c1.61,0,1.61-2.5,0-2.5C12.28,50.02,12.28,52.52,13.89,52.52L13.89,52.52z"/>
		</g>
	</g>
	<g>
		<g>
			<path class="st3" d="M24.05,111.25c1.61,0,1.61-2.5,0-2.5C22.45,108.75,22.44,111.25,24.05,111.25L24.05,111.25z"/>
		</g>
	</g>
	<g>
		<g>
			<path class="st3" d="M83.91,20.89c1.61,0,1.61-2.5,0-2.5C82.3,18.39,82.3,20.89,83.91,20.89L83.91,20.89z"/>
		</g>
	</g>
	<g>
		<g>
			<path class="st3" d="M74.88,35.58c1.61,0,1.61-2.5,0-2.5C73.27,33.08,73.27,35.58,74.88,35.58L74.88,35.58z"/>
		</g>
	</g>
</g>
<g id="Каркас" class="st5">
	<path class="st6" d="M784.71,220.43H598.15c-6.28,0-11.37-5.09-11.37-11.37v-55.74c0-6.28,5.09-11.37,11.37-11.37h186.56
		c6.28,0,11.37,5.09,11.37,11.37v55.74C796.08,215.34,790.99,220.43,784.71,220.43z"/>
	<path class="st7" d="M780.78,216.43H594.22c-6.28,0-11.37-5.09-11.37-11.37v-55.74c0-6.28,5.09-11.37,11.37-11.37h186.56
		c6.28,0,11.37,5.09,11.37,11.37v55.74C792.15,211.34,787.06,216.43,780.78,216.43z"/>
	<path class="st6" d="M784.71,557.53H598.15c-6.28,0-11.37-5.09-11.37-11.37v-55.74c0-6.28,5.09-11.37,11.37-11.37h186.56
		c6.28,0,11.37,5.09,11.37,11.37v55.74C796.08,552.44,790.99,557.53,784.71,557.53z"/>
	<path class="st6" d="M560.18,558.98H74.97c-6.47,0-11.71-5.24-11.71-11.71V62.06c0-6.47,5.24-11.71,11.71-11.71h485.21
		c6.47,0,11.71,5.24,11.71,11.71v485.21C571.89,553.74,566.65,558.98,560.18,558.98z"/>
	<path class="st7" d="M554.01,554.98H71.14c-7.11,0-12.88-5.77-12.88-12.88V59.23c0-7.11,5.77-12.88,12.88-12.88h482.87
		c7.11,0,12.88,5.77,12.88,12.88V542.1C566.89,549.22,561.13,554.98,554.01,554.98z"/>
	<path class="st7" d="M554.01,554.98H71.14c-7.11,0-12.88-5.77-12.88-12.88V59.23c0-7.11,5.77-12.88,12.88-12.88h482.87
		c7.11,0,12.88,5.77,12.88,12.88V542.1C566.9,549.22,561.13,554.98,554.01,554.98z"/>
	<path class="st6" d="M784.71,128.82H598.15c-6.28,0-11.37-5.09-11.37-11.37V61.71c0-6.28,5.09-11.37,11.37-11.37h186.56
		c6.28,0,11.37,5.09,11.37,11.37v55.74C796.08,123.73,790.99,128.82,784.71,128.82z"/>
	<path class="st7" d="M780.78,124.82H594.22c-6.28,0-11.37-5.09-11.37-11.37V57.71c0-6.28,5.09-11.37,11.37-11.37h186.56
		c6.28,0,11.37,5.09,11.37,11.37v55.74C792.15,119.73,787.06,124.82,780.78,124.82z"/>
	<path class="st7" d="M780.78,124.82H594.22c-6.28,0-11.37-5.09-11.37-11.37V57.71c0-6.28,5.09-11.37,11.37-11.37h186.56
		c6.28,0,11.37,5.09,11.37,11.37v55.74C792.15,119.73,787.06,124.82,780.78,124.82z"/>
	<path class="st7" d="M780.71,553.09H594.15c-6.28,0-11.37-5.09-11.37-11.37v-55.74c0-6.28,5.09-11.37,11.37-11.37h186.56
		c6.28,0,11.37,5.09,11.37,11.37v55.74C792.08,548,786.99,553.09,780.71,553.09z"/>
	<path class="st8" d="M764.19,536.44H610.67c-8.26,0-14.96-6.7-14.96-14.96v-15.27c0-8.26,6.7-14.96,14.96-14.96h153.52
		c8.26,0,14.96,6.7,14.96,14.96v15.27C779.14,529.75,772.45,536.44,764.19,536.44z"/>
	<path class="st6" d="M766.38,109.3h-157.9c-7.05,0-12.76-5.71-12.76-12.76V76.89c0-7.05,5.71-12.76,12.76-12.76h157.9
		c7.05,0,12.76,5.71,12.76,12.76v19.65C779.14,103.59,773.43,109.3,766.38,109.3z"/>
	<path class="st8" d="M683.12,208.52h-36.59c-7.06,0-12.78-5.72-12.78-12.78v-36.59c0-7.06,5.72-12.78,12.78-12.78h36.59
		c7.06,0,12.78,5.72,12.78,12.78v36.59C695.9,202.8,690.18,208.52,683.12,208.52z"/>
	<path class="st8" d="M722.08,150.37l-14.71,20.71c-1.12,1.57,0.01,3.75,1.94,3.75h29.42c1.93,0,3.06-2.18,1.94-3.75l-14.71-20.71
		C725.01,149.04,723.03,149.04,722.08,150.37z"/>
	<path class="st8" d="M725.96,204.52l14.71-20.71c1.12-1.57-0.01-3.75-1.94-3.75h-29.42c-1.93,0-3.06,2.18-1.94,3.75l14.71,20.71
		C723.03,205.85,725.01,205.85,725.96,204.52z"/>
	<text transform="matrix(1 0 0 1 642.8953 525.3313)" class="st7 st9 st10">start</text>
	<text transform="matrix(1 0 0 1 653.1376 190.118)" class="st7 st9 st10">4</text>
	<text transform="matrix(1 0 0 1 631.7936 101.4978)" class="st7 st9 st10">00:00</text>
	<path class="st11" d="M173.07,168.86H81.68c-5.54,0-10.03-4.49-10.03-10.03V67.44c0-5.54,4.49-10.03,10.03-10.03h91.39
		c5.54,0,10.03,4.49,10.03,10.03v91.39C183.1,164.36,178.61,168.86,173.07,168.86z"/>
	<path class="st12" d="M296.12,168.86h-91.39c-5.54,0-10.03-4.49-10.03-10.03V67.44c0-5.54,4.49-10.03,10.03-10.03h91.39
		c5.54,0,10.03,4.49,10.03,10.03v91.39C306.15,164.36,301.66,168.86,296.12,168.86z"/>
	<path class="st13" d="M419.71,168.86h-91.39c-5.54,0-10.03-4.49-10.03-10.03V67.44c0-5.54,4.49-10.03,10.03-10.03h91.39
		c5.54,0,10.03,4.49,10.03,10.03v91.39C429.74,164.36,425.25,168.86,419.71,168.86z"/>
	<path class="st14" d="M542.75,168.86h-91.39c-5.54,0-10.03-4.49-10.03-10.03V67.44c0-5.54,4.49-10.03,10.03-10.03h91.39
		c5.54,0,10.03,4.49,10.03,10.03v91.39C552.78,164.36,548.29,168.86,542.75,168.86z"/>
	<path class="st15" d="M173.07,294.01H81.68c-5.54,0-10.03-4.49-10.03-10.03v-91.39c0-5.54,4.49-10.03,10.03-10.03h91.39
		c5.54,0,10.03,4.49,10.03,10.03v91.39C183.1,289.52,178.61,294.01,173.07,294.01z"/>
	<path class="st13" d="M296.12,294.01h-91.39c-5.54,0-10.03-4.49-10.03-10.03v-91.39c0-5.54,4.49-10.03,10.03-10.03h91.39
		c5.54,0,10.03,4.49,10.03,10.03v91.39C306.15,289.52,301.66,294.01,296.12,294.01z"/>
	<path class="st11" d="M419.71,294.01h-91.39c-5.54,0-10.03-4.49-10.03-10.03v-91.39c0-5.54,4.49-10.03,10.03-10.03h91.39
		c5.54,0,10.03,4.49,10.03,10.03v91.39C429.74,289.52,425.25,294.01,419.71,294.01z"/>
	<path class="st15" d="M542.75,294.01h-91.39c-5.54,0-10.03-4.49-10.03-10.03v-91.39c0-5.54,4.49-10.03,10.03-10.03h91.39
		c5.54,0,10.03,4.49,10.03,10.03v91.39C552.78,289.52,548.29,294.01,542.75,294.01z"/>
	<path class="st14" d="M173.07,419.17H81.68c-5.54,0-10.03-4.49-10.03-10.03v-91.39c0-5.54,4.49-10.03,10.03-10.03h91.39
		c5.54,0,10.03,4.49,10.03,10.03v91.39C183.1,414.68,178.61,419.17,173.07,419.17z"/>
	<path class="st16" d="M296.12,419.17h-91.39c-5.54,0-10.03-4.49-10.03-10.03v-91.39c0-5.54,4.49-10.03,10.03-10.03h91.39
		c5.54,0,10.03,4.49,10.03,10.03v91.39C306.15,414.68,301.66,419.17,296.12,419.17z"/>
	<path class="st12" d="M419.71,419.17h-91.39c-5.54,0-10.03-4.49-10.03-10.03v-91.39c0-5.54,4.49-10.03,10.03-10.03h91.39
		c5.54,0,10.03,4.49,10.03,10.03v91.39C429.74,414.68,425.25,419.17,419.71,419.17z"/>
	<path class="st17" d="M542.75,419.17h-91.39c-5.54,0-10.03-4.49-10.03-10.03v-91.39c0-5.54,4.49-10.03,10.03-10.03h91.39
		c5.54,0,10.03,4.49,10.03,10.03v91.39C552.78,414.68,548.29,419.17,542.75,419.17z"/>
	<path class="st18" d="M173.07,544.33H81.68c-5.54,0-10.03-4.49-10.03-10.03v-91.39c0-5.54,4.49-10.03,10.03-10.03h91.39
		c5.54,0,10.03,4.49,10.03,10.03v91.39C183.1,539.84,178.61,544.33,173.07,544.33z"/>
	<path class="st16" d="M296.12,544.33h-91.39c-5.54,0-10.03-4.49-10.03-10.03v-91.39c0-5.54,4.49-10.03,10.03-10.03h91.39
		c5.54,0,10.03,4.49,10.03,10.03v91.39C306.15,539.84,301.66,544.33,296.12,544.33z"/>
	<path class="st18" d="M419.71,544.33h-91.39c-5.54,0-10.03-4.49-10.03-10.03v-91.39c0-5.54,4.49-10.03,10.03-10.03h91.39
		c5.54,0,10.03,4.49,10.03,10.03v91.39C429.74,539.84,425.25,544.33,419.71,544.33z"/>
	<path class="st17" d="M542.75,544.33h-91.39c-5.54,0-10.03-4.49-10.03-10.03v-91.39c0-5.54,4.49-10.03,10.03-10.03h91.39
		c5.54,0,10.03,4.49,10.03,10.03v91.39C552.78,539.84,548.29,544.33,542.75,544.33z"/>
	<g class="st19">
		<g>
			<path class="st20" d="M13.89,258.19c3.22,0,3.22-5,0-5C10.67,253.19,10.67,258.19,13.89,258.19L13.89,258.19z"/>
		</g>
	</g>
</g>
</svg>
